<svg width="14" height="21" viewBox="0 0 14 21" fill="none" xmlns="http://www.w3.org/2000/svg">
<path d="M6.53 17.6286L11.48 9.06428C13.68 5.26238 10.93 0.5 6.53 0.5C2.13 0.5 -0.609998 5.25238 1.58 9.06428L6.53 17.6286Z" stroke="#3B3B3D" stroke-linecap="round" stroke-linejoin="round"/>
<path d="M6.53 8.43375C7.86 8.43375 8.94 7.3532 8.94 6.02254C8.94 4.69187 7.86 3.61133 6.53 3.61133C5.2 3.61133 4.12 4.69187 4.12 6.02254C4.12 7.3532 5.2 8.43375 6.53 8.43375Z" stroke="#3B3B3D" stroke-linecap="round" stroke-linejoin="round"/>
<path d="M8.28 14.5967C10.75 14.9669 12.56 16.1175 12.56 17.4781C12.56 19.139 9.86 20.4996 6.53 20.4996C3.2 20.4996 0.5 19.149 0.5 17.4781C0.5 16.1175 2.31 14.9669 4.78 14.5767" stroke="#3B3B3D" stroke-linecap="round" stroke-linejoin="round"/>
</svg>
