<svg width="11" height="16" viewBox="0 0 11 16" fill="none" xmlns="http://www.w3.org/2000/svg">
<path d="M5.5 0.5C8.25285 0.5 10.4998 2.7746 10.5 5.59961C10.5 6.33537 10.3994 6.89588 10.2021 7.39453C10.0038 7.89592 9.69612 8.36344 9.24219 8.90234L9.24121 8.9043C9.21474 8.93606 9.022 9.17278 8.99707 9.20312C8.71095 9.54282 8.48954 9.84207 8.3457 10.1621C8.19554 10.4962 8.14258 10.823 8.14258 11.2002V12.7998C8.14258 14.2994 6.95105 15.5 5.5 15.5C4.04895 15.5 2.85742 14.2994 2.85742 12.7998V11.2002C2.85742 10.823 2.80446 10.4962 2.6543 10.1621C2.5464 9.92204 2.3948 9.6937 2.20508 9.45117L2.00293 9.20312C1.978 9.17278 1.78526 8.93606 1.75879 8.9043L1.75781 8.90234L1.44336 8.50977C1.15621 8.12757 0.946545 7.77041 0.797852 7.39453C0.600594 6.89588 0.5 6.33537 0.5 5.59961C0.500207 2.7746 2.74715 0.5 5.5 0.5ZM3.42871 12.7998C3.42871 13.9514 4.34719 14.9004 5.5 14.9004C6.65281 14.9004 7.57129 13.9514 7.57129 12.7998V11.5H3.42871V12.7998ZM5.5 1.09961C3.04617 1.09961 1.0715 3.12338 1.07129 5.59961C1.07129 6.20503 1.14089 6.70138 1.32617 7.17285C1.51002 7.64059 1.79449 8.04966 2.1709 8.49707L2.17285 8.49902C2.20047 8.53147 2.26599 8.60369 2.31836 8.66113C2.34706 8.69261 2.37525 8.72334 2.39844 8.74902C2.40986 8.76168 2.41987 8.77238 2.42773 8.78125C2.43168 8.7857 2.43501 8.79011 2.4375 8.79297L2.44141 8.79688C2.96494 9.4189 3.24076 9.94808 3.36133 10.5127L3.44531 10.9092H3.84961C4.34827 10.9092 4.92478 10.9082 5.5 10.9072C6.07528 10.9062 6.64997 10.9053 7.14746 10.9053H7.55176L7.63672 10.5088C7.75697 9.94642 8.03379 9.4204 8.55859 8.79688L8.5625 8.79297C8.56499 8.79011 8.56832 8.7857 8.57227 8.78125C8.58013 8.77238 8.59014 8.76168 8.60156 8.74902C8.62475 8.72334 8.65294 8.69261 8.68164 8.66113C8.73401 8.60369 8.79953 8.53147 8.82715 8.49902L8.8291 8.49707C9.20551 8.04966 9.48998 7.64059 9.67383 7.17285C9.85911 6.70138 9.92871 6.20503 9.92871 5.59961C9.9285 3.12338 7.95383 1.09961 5.5 1.09961ZM5.5 3.7002C5.64912 3.7002 5.78613 3.82601 5.78613 4C5.78613 4.17399 5.64912 4.2998 5.5 4.2998C4.78182 4.2998 4.21408 4.89057 4.21387 5.59961C4.21387 5.77354 4.07777 5.90031 3.92871 5.90039C3.77959 5.90039 3.64258 5.7736 3.64258 5.59961C3.64278 4.5418 4.48279 3.7002 5.5 3.7002Z" fill="#2A343D" stroke="black"/>
</svg>
