<svg width="22" height="23" viewBox="0 0 22 23" fill="none" xmlns="http://www.w3.org/2000/svg">
<path fill-rule="evenodd" clip-rule="evenodd" d="M7 0.25C7.41421 0.25 7.75 0.585786 7.75 1V1.28225C8.65846 1.24999 9.71673 1.25 10.9622 1.25L11 1.25L11.0378 1.25C12.2833 1.25 13.3415 1.24999 14.25 1.28225V1C14.25 0.585786 14.5858 0.25 15 0.25C15.4142 0.25 15.75 0.585786 15.75 1V1.38414C16.773 1.49909 17.6189 1.71782 18.375 2.15433C19.4011 2.74676 20.2532 3.59887 20.8457 4.625C21.3245 5.45433 21.5413 6.39182 21.6465 7.55249C21.75 8.69502 21.75 10.1249 21.75 11.9621V12V12.0379C21.75 13.8751 21.75 15.305 21.6465 16.4475C21.5413 17.6082 21.3245 18.5457 20.8457 19.375C20.2532 20.4011 19.4011 21.2532 18.375 21.8457C17.5457 22.3245 16.6082 22.5413 15.4475 22.6465C14.305 22.75 12.8751 22.75 11.0379 22.75H11H10.9621C9.12494 22.75 7.69502 22.75 6.55249 22.6465C5.39182 22.5413 4.45433 22.3245 3.625 21.8457C2.59887 21.2532 1.74676 20.4011 1.15433 19.375C0.675516 18.5457 0.458738 17.6082 0.353543 16.4475C0.249992 15.305 0.249995 13.875 0.25 12.0378V12.0378V12V11.9622V11.9622C0.249995 10.125 0.249992 8.69502 0.353543 7.55249C0.458738 6.39182 0.675516 5.45433 1.15433 4.625C1.74676 3.59887 2.59887 2.74676 3.625 2.15433C4.38106 1.71782 5.22701 1.49909 6.25 1.38414V1C6.25 0.585786 6.58579 0.25 7 0.25ZM5.25 8C5.25 7.58579 5.58579 7.25 6 7.25H16C16.4142 7.25 16.75 7.58579 16.75 8C16.75 8.41421 16.4142 8.75 16 8.75H6C5.58579 8.75 5.25 8.41421 5.25 8ZM7 14C7.55228 14 8 13.5523 8 13C8 12.4477 7.55228 12 7 12C6.44772 12 6 12.4477 6 13C6 13.5523 6.44772 14 7 14ZM8 17C8 17.5523 7.55228 18 7 18C6.44772 18 6 17.5523 6 17C6 16.4477 6.44772 16 7 16C7.55228 16 8 16.4477 8 17ZM11 18C11.5523 18 12 17.5523 12 17C12 16.4477 11.5523 16 11 16C10.4477 16 10 16.4477 10 17C10 17.5523 10.4477 18 11 18ZM16 17C16 17.5523 15.5523 18 15 18C14.4477 18 14 17.5523 14 17C14 16.4477 14.4477 16 15 16C15.5523 16 16 16.4477 16 17ZM11 14C11.5523 14 12 13.5523 12 13C12 12.4477 11.5523 12 11 12C10.4477 12 10 12.4477 10 13C10 13.5523 10.4477 14 11 14ZM16 13C16 13.5523 15.5523 14 15 14C14.4477 14 14 13.5523 14 13C14 12.4477 14.4477 12 15 12C15.5523 12 16 12.4477 16 13Z" fill="#22272F"/>
</svg>
