<svg width="14" height="20" viewBox="0 0 14 20" fill="none" xmlns="http://www.w3.org/2000/svg">
<path d="M7.60159 16.8721L13.0863 13.7785M4.59643 5.12934L10.5401 15.2147M7.06969 3.33351C7.15985 3.48889 7.10128 3.69047 6.93887 3.78376L2.01323 6.61322C1.85082 6.70651 1.64607 6.65618 1.55591 6.50081C-0.476827 2.99779 0.845772 1.65726 2.0273 0.978552C3.20882 0.299845 5.03356 -0.175351 7.06969 3.33351ZM7.23293 3.61484L13.0023 13.5573C13.0726 13.6783 13.1067 13.8171 13.0992 13.9566C13.0041 15.7187 12.761 17.2627 12.5998 18.1396C12.5232 18.556 12.1017 18.8004 11.7001 18.6608C10.8521 18.3661 9.37804 17.8095 7.78804 17.0077C7.66259 16.9444 7.55879 16.8456 7.48847 16.7244L1.71916 6.78214L7.23293 3.61484Z" stroke="#CAD6FF" stroke-linecap="round"/>
</svg>
