<svg width="18" height="16" viewBox="0 0 18 16" fill="none" xmlns="http://www.w3.org/2000/svg">
<path fill-rule="evenodd" clip-rule="evenodd" d="M9.00033 4.33685L7.82181 3.15834C6.56632 1.90284 4.53077 1.90284 3.27528 3.15834C2.01978 4.41383 2.01979 6.44938 3.27528 7.70487L9.00033 13.4299L14.7254 7.70487C15.9809 6.44938 15.9809 4.41383 14.7254 3.15834C13.4699 1.90284 11.4343 1.90284 10.1788 3.15834L9.00033 4.33685ZM9.00151 1.97864C10.908 0.0734525 13.9979 0.0738561 15.9039 1.97982C17.8102 3.88619 17.8103 6.97701 15.9039 8.88338L9.57562 15.2116C9.25789 15.5294 8.74276 15.5294 8.42503 15.2116L2.09677 8.88338C0.190405 6.97702 0.190396 3.8862 2.09677 1.97982C4.00314 0.0734524 7.09396 0.0734616 9.00033 1.97982C9.00072 1.97943 9.00111 1.97904 9.00151 1.97864Z" fill="#E0E0E0" fill-opacity="0.65098"/>
</svg>
