<svg width="22" height="20" viewBox="0 0 22 20" fill="none" xmlns="http://www.w3.org/2000/svg">
<path fill-rule="evenodd" clip-rule="evenodd" d="M14.9892 1.75059C13.6789 1.73163 12.4502 2.17738 11.624 3.41665C11.4849 3.62529 11.2508 3.75061 11 3.75061C10.7492 3.75061 10.5151 3.62529 10.376 3.41665C9.5543 2.1842 8.30339 1.75067 7 1.75067C4.37322 1.75067 1.75 3.95464 1.75 7.00045C1.75 10.1786 3.80478 12.9902 6.12509 15.0662C7.27178 16.0922 8.44943 16.9071 9.39543 17.4627C9.86873 17.7407 10.276 17.949 10.5853 18.085C10.7405 18.1533 10.8622 18.1995 10.9496 18.2273C10.9702 18.2338 10.9869 18.2386 11 18.2422C11.0131 18.2386 11.0298 18.2338 11.0504 18.2273C11.1378 18.1995 11.2595 18.1533 11.4148 18.085C11.724 17.949 12.1313 17.7407 12.6046 17.4627C13.5506 16.9071 14.7282 16.0922 15.8749 15.0662C18.1952 12.9902 20.25 10.1786 20.25 7.00045C20.25 3.96338 17.6341 1.78886 14.9892 1.75059ZM10.9984 1.81008C12.1283 0.644729 13.5981 0.230306 15.0109 0.250747C18.3659 0.299292 21.75 3.03779 21.75 7.00045C21.75 10.8221 19.3048 14.0103 16.8751 16.1841C15.6468 17.2831 14.3869 18.1555 13.3642 18.7562C12.8531 19.0563 12.3932 19.2933 12.0188 19.458C11.8323 19.5401 11.6581 19.6081 11.5038 19.6571C11.3684 19.7 11.1833 19.75 11 19.75C10.8167 19.75 10.6316 19.7 10.4962 19.6571C10.3419 19.6081 10.1677 19.5401 9.98116 19.458C9.60681 19.2933 9.1469 19.0563 8.63583 18.7562C7.61308 18.1555 6.35323 17.2831 5.12492 16.1841C2.69523 14.0103 0.25 10.8221 0.25 7.00045C0.25 3.04654 3.62678 0.25067 7 0.25067C8.37536 0.25067 9.86 0.646804 10.9984 1.81008Z" fill="#22272F"/>
</svg>
