<svg width="22" height="23" viewBox="0 0 22 23" fill="none" xmlns="http://www.w3.org/2000/svg">
<path fill-rule="evenodd" clip-rule="evenodd" d="M12.1331 2.30698C11.3916 2.10184 10.6083 2.10184 9.86677 2.30698C9.48336 2.41305 9.09082 2.61055 8.557 2.97696C8.01537 3.34873 7.37121 3.86347 6.47092 4.5837L4.47092 6.1837C3.33577 7.09182 2.88228 7.46269 2.55894 7.90875C2.26013 8.32096 2.03781 8.78352 1.90259 9.27436C1.75627 9.8055 1.74996 10.3913 1.74996 11.845V17C1.74996 19.3472 3.65275 21.25 5.99996 21.25C6.69031 21.25 7.24996 20.6904 7.24996 20V15.9999C7.24996 13.9289 8.92889 12.2499 11 12.2499C13.071 12.2499 14.75 13.9289 14.75 15.9999V20C14.75 20.6904 15.3096 21.25 16 21.25C18.3472 21.25 20.25 19.3472 20.25 17V11.845C20.25 10.3913 20.2436 9.8055 20.0973 9.27436C19.9621 8.78352 19.7398 8.32096 19.441 7.90875C19.1176 7.46269 18.6641 7.09182 17.529 6.1837L15.529 4.5837C14.6287 3.86346 13.9845 3.34873 13.4429 2.97696C12.9091 2.61055 12.5166 2.41305 12.1331 2.30698ZM9.46683 0.86128C10.4701 0.583736 11.5298 0.583736 12.5331 0.86128C13.1387 1.02882 13.6866 1.32484 14.2918 1.74026C14.884 2.14678 15.5707 2.69615 16.4431 3.39407L16.466 3.41239L18.466 5.01239C18.4963 5.03663 18.5263 5.0606 18.5559 5.0843C19.5727 5.89747 20.1985 6.39797 20.6555 7.02838C21.0597 7.58609 21.3605 8.21189 21.5435 8.87598C21.7502 9.62663 21.7501 10.428 21.75 11.7299C21.75 11.7678 21.75 11.8062 21.75 11.845V17C21.75 20.1756 19.1756 22.75 16 22.75C14.4812 22.75 13.25 21.5188 13.25 20V15.9999C13.25 14.7573 12.2426 13.7499 11 13.7499C9.75732 13.7499 8.74996 14.7573 8.74996 15.9999V20C8.74996 21.5188 7.51874 22.75 5.99996 22.75C2.82432 22.75 0.249959 20.1756 0.249959 17V11.845C0.249959 11.8062 0.249954 11.7678 0.249949 11.7299C0.249777 10.428 0.249671 9.62663 0.456465 8.87598C0.639409 8.21189 0.940188 7.58609 1.34446 7.02838C1.80144 6.39797 2.42724 5.89747 3.44397 5.0843C3.47361 5.0606 3.50357 5.03664 3.53388 5.01239L5.53387 3.4124L5.5568 3.39406C6.42919 2.69614 7.11588 2.14678 7.70813 1.74026C8.31336 1.32484 8.86123 1.02882 9.46683 0.86128Z" fill="#22272F"/>
</svg>
