<svg width="22" height="22" viewBox="0 0 22 22" fill="none" xmlns="http://www.w3.org/2000/svg">
<path d="M9.03001 18.5011C9.59001 18.5911 10.16 18.6311 10.73 18.6311C16.24 18.6311 20.71 14.6331 20.71 9.68553C20.71 4.73801 16.24 0.75 10.73 0.75C5.22 0.75 0.75 4.748 0.75 9.69552C0.76 10.9649 1.06 12.2243 1.63 13.3637C2.19 14.5031 3 15.5126 4 16.3022L5.57 20.75L9.03001 18.5111V18.5011Z" stroke="#3B3B3D" stroke-width="1.5" stroke-linejoin="round"/>
<path d="M6.21006 10.4255C6.57006 10.4255 6.86005 10.1355 6.86005 9.77549C6.86005 9.41549 6.57006 9.12549 6.21006 9.12549C5.85006 9.12549 5.56006 9.41549 5.56006 9.77549C5.56006 10.1355 5.85006 10.4255 6.21006 10.4255Z" stroke="#3B3B3D" stroke-width="1.2" stroke-miterlimit="10"/>
<path d="M11.38 10.4255C11.74 10.4255 12.03 10.1355 12.03 9.77549C12.03 9.41549 11.74 9.12549 11.38 9.12549C11.02 9.12549 10.73 9.41549 10.73 9.77549C10.73 10.1355 11.02 10.4255 11.38 10.4255Z" stroke="#3B3B3D" stroke-width="1.2" stroke-miterlimit="10"/>
<path d="M16.54 10.4255C16.9 10.4255 17.19 10.1355 17.19 9.77549C17.19 9.41549 16.9 9.12549 16.54 9.12549C16.18 9.12549 15.89 9.41549 15.89 9.77549C15.89 10.1355 16.18 10.4255 16.54 10.4255Z" stroke="#3B3B3D" stroke-width="1.2" stroke-miterlimit="10"/>
</svg>
