<svg width="21" height="24" viewBox="0 0 21 24" fill="none" xmlns="http://www.w3.org/2000/svg">
<path d="M15.8979 9.08995L15.8979 6.68132C15.8979 3.8329 13.4858 1.52381 10.5104 1.52381C7.53496 1.52381 5.12288 3.8329 5.12288 6.68132V9.08995M10.3565 15.2011C11.0366 15.2011 11.5879 14.6799 11.5879 14.037C11.5879 13.3942 11.0366 12.873 10.3565 12.873C9.67637 12.873 9.12504 13.3942 9.12504 14.037C9.12504 14.6799 9.67637 15.2011 10.3565 15.2011ZM10.3565 15.2011V19.1296M2.96786 22.4762H17.9845C18.8346 22.4762 19.5238 21.8248 19.5238 21.0212V10.545C19.5238 9.74138 18.8346 9.08995 17.9845 9.08995H2.96787C2.11774 9.08995 1.42857 9.74138 1.42857 10.545V21.0212C1.42857 21.8248 2.11774 22.4762 2.96786 22.4762Z" stroke="#2260FF" stroke-width="2" stroke-linecap="round"/>
</svg>
