<svg width="18" height="18" viewBox="0 0 18 18" fill="none" xmlns="http://www.w3.org/2000/svg">
<path d="M9.00033 9.83329C10.381 9.83329 11.5003 8.71401 11.5003 7.33329C11.5003 5.95258 10.381 4.83329 9.00033 4.83329C7.61961 4.83329 6.50033 5.95258 6.50033 7.33329C6.50033 8.71401 7.61961 9.83329 9.00033 9.83329Z" fill="white"/>
<path fill-rule="evenodd" clip-rule="evenodd" d="M4.47818 16.0007C2.18456 14.5162 0.666992 11.9354 0.666992 8.99996C0.666992 4.3976 4.39794 0.666626 9.00033 0.666626C13.6027 0.666626 17.3337 4.3976 17.3337 8.99996C17.3337 12.0202 15.7269 14.6652 13.3215 16.1268C12.0615 16.8924 10.5824 17.3333 9.00033 17.3333C7.33343 17.3333 5.78059 16.8437 4.47818 16.0007ZM4.58975 13.9992C5.1341 12.0759 6.90265 10.6666 9.00033 10.6666C11.098 10.6666 12.8665 12.0759 13.4109 13.9992C14.7944 12.7776 15.667 10.9907 15.667 8.99996C15.667 5.31806 12.6822 2.33329 9.00033 2.33329C5.31843 2.33329 2.33366 5.31806 2.33366 8.99996C2.33366 10.9907 3.20623 12.7776 4.58975 13.9992Z" fill="white"/>
</svg>
